<?plantuml 1.2026.2?><svg xmlns="http://www.w3.org/2000/svg" xmlns:xlink="http://www.w3.org/1999/xlink" contentStyleType="text/css" data-diagram-type="DESCRIPTION" height="806px" preserveAspectRatio="none" style="width:1580px;height:806px;background:#FFFFFF;" version="1.1" viewBox="0 0 1580 806" width="1580px" zoomAndPan="magnify"><title>market-analysis-engine - Intended Architecture</title><defs/><g><g class="title" data-source-line="2"><text fill="#000000" font-family="sans-serif" font-size="14" font-weight="bold" lengthAdjust="spacing" textLength="312.7448" x="626.7026" y="23.0059">market-analysis-engine - Intended Architecture</text></g><!--cluster Frontends--><g class="cluster" data-qualified-name="Frontends" data-source-line="4" id="ent0002"><path d="M8.5,327.0939 L77.9458,327.0939 A3.75,3.75 0 0 1 80.4458,329.5939 L87.4458,349.8938 L125.3,349.8938 A2.5,2.5 0 0 1 127.8,352.3938 L127.8,503.5939 A2.5,2.5 0 0 1 125.3,506.0939 L8.5,506.0939 A2.5,2.5 0 0 1 6,503.5939 L6,329.5939 A2.5,2.5 0 0 1 8.5,327.0939" fill="none" style="stroke:#000000;stroke-width:1.5;"/><line style="stroke:#000000;stroke-width:1.5;" x1="6" x2="87.4458" y1="349.8938" y2="349.8938"/><text fill="#000000" font-family="sans-serif" font-size="14" font-weight="bold" lengthAdjust="spacing" textLength="68.4458" x="10" y="342.0999">Frontends</text></g><!--cluster Command Layer--><g class="cluster" data-qualified-name="Command Layer" data-source-line="9" id="ent0005"><path d="M158.3,44.0939 L268.9896,44.0939 A3.75,3.75 0 0 1 271.4896,46.5939 L278.4896,66.8938 L771.53,66.8938 A2.5,2.5 0 0 1 774.03,69.3938 L774.03,138.5939 A2.5,2.5 0 0 1 771.53,141.0939 L158.3,141.0939 A2.5,2.5 0 0 1 155.8,138.5939 L155.8,46.5939 A2.5,2.5 0 0 1 158.3,44.0939" fill="none" style="stroke:#000000;stroke-width:1.5;"/><line style="stroke:#000000;stroke-width:1.5;" x1="155.8" x2="278.4896" y1="66.8938" y2="66.8938"/><text fill="#000000" font-family="sans-serif" font-size="14" font-weight="bold" lengthAdjust="spacing" textLength="109.6896" x="159.8" y="59.0999">Command Layer</text></g><!--cluster Core--><g class="cluster" data-qualified-name="Core" data-source-line="15" id="ent0009"><path d="M659.79,165.0939 L692.6819,165.0939 A3.75,3.75 0 0 1 695.1819,167.5939 L702.1819,187.8938 L751.7,187.8938 A2.5,2.5 0 0 1 754.2,190.3938 L754.2,259.5939 A2.5,2.5 0 0 1 751.7,262.0939 L659.79,262.0939 A2.5,2.5 0 0 1 657.29,259.5939 L657.29,167.5939 A2.5,2.5 0 0 1 659.79,165.0939" fill="none" style="stroke:#000000;stroke-width:1.5;"/><line style="stroke:#000000;stroke-width:1.5;" x1="657.29" x2="702.1819" y1="187.8938" y2="187.8938"/><text fill="#000000" font-family="sans-serif" font-size="14" font-weight="bold" lengthAdjust="spacing" textLength="31.8919" x="661.29" y="180.0999">Core</text></g><!--cluster Handlers--><g class="cluster" data-qualified-name="Handlers" data-source-line="19" id="ent0011"><path d="M819.33,293.0939 L880.2358,293.0939 A3.75,3.75 0 0 1 882.7358,295.5939 L889.7358,315.8938 L1028.69,315.8938 A2.5,2.5 0 0 1 1031.19,318.3938 L1031.19,551.5939 A2.5,2.5 0 0 1 1028.69,554.0939 L819.33,554.0939 A2.5,2.5 0 0 1 816.83,551.5939 L816.83,295.5939 A2.5,2.5 0 0 1 819.33,293.0939" fill="none" style="stroke:#000000;stroke-width:1.5;"/><line style="stroke:#000000;stroke-width:1.5;" x1="816.83" x2="889.7358" y1="315.8938" y2="315.8938"/><text fill="#000000" font-family="sans-serif" font-size="14" font-weight="bold" lengthAdjust="spacing" textLength="59.9058" x="820.83" y="308.0999">Handlers</text></g><!--cluster Runtime / Config--><g class="cluster" data-qualified-name="Runtime . Config" data-source-line="25" id="ent0015"><path d="M187.49,286.0939 L300.4896,286.0939 A3.75,3.75 0 0 1 302.9896,288.5939 L309.9896,308.8938 L786.33,308.8938 A2.5,2.5 0 0 1 788.83,311.3938 L788.83,626.5939 A2.5,2.5 0 0 1 786.33,629.0939 L187.49,629.0939 A2.5,2.5 0 0 1 184.99,626.5939 L184.99,288.5939 A2.5,2.5 0 0 1 187.49,286.0939" fill="none" style="stroke:#000000;stroke-width:1.5;"/><line style="stroke:#000000;stroke-width:1.5;" x1="184.99" x2="309.9896" y1="308.8938" y2="308.8938"/><text fill="#000000" font-family="sans-serif" font-size="14" font-weight="bold" lengthAdjust="spacing" textLength="111.9996" x="188.99" y="301.0999">Runtime / Config</text></g><!--cluster Infrastructure Services--><g class="cluster" data-qualified-name="Infrastructure Services" data-source-line="34" id="ent0022"><path d="M1061.69,132.0939 L1215.1914,132.0939 A3.75,3.75 0 0 1 1217.6914,134.5939 L1224.6914,154.8938 L1570.65,154.8938 A2.5,2.5 0 0 1 1573.15,157.3938 L1573.15,390.5939 A2.5,2.5 0 0 1 1570.65,393.0939 L1061.69,393.0939 A2.5,2.5 0 0 1 1059.19,390.5939 L1059.19,134.5939 A2.5,2.5 0 0 1 1061.69,132.0939" fill="none" style="stroke:#000000;stroke-width:1.5;"/><line style="stroke:#000000;stroke-width:1.5;" x1="1059.19" x2="1224.6914" y1="154.8938" y2="154.8938"/><text fill="#000000" font-family="sans-serif" font-size="14" font-weight="bold" lengthAdjust="spacing" textLength="152.5014" x="1063.19" y="147.0999">Infrastructure Services</text></g><!--cluster Output--><g class="cluster" data-qualified-name="Output" data-source-line="43" id="ent0029"><path d="M1088.52,456.0939 L1135.3978,456.0939 A3.75,3.75 0 0 1 1137.8978,458.5939 L1144.8978,478.8938 L1394.4,478.8938 A2.5,2.5 0 0 1 1396.9,481.3938 L1396.9,796.5939 A2.5,2.5 0 0 1 1394.4,799.0939 L1088.52,799.0939 A2.5,2.5 0 0 1 1086.02,796.5939 L1086.02,458.5939 A2.5,2.5 0 0 1 1088.52,456.0939" fill="none" style="stroke:#000000;stroke-width:1.5;"/><line style="stroke:#000000;stroke-width:1.5;" x1="1086.02" x2="1144.8978" y1="478.8938" y2="478.8938"/><text fill="#000000" font-family="sans-serif" font-size="14" font-weight="bold" lengthAdjust="spacing" textLength="45.8778" x="1090.02" y="471.0999">Output</text></g><!--entity CLI--><g class="entity" data-qualified-name="Frontends.CLI" data-source-line="5" id="ent0003"><rect fill="#F1F1F1" height="46.7999" rx="2.5" ry="2.5" style="stroke:#181818;stroke-width:0.5;" width="61.7839" x="36.01" y="443.6939"/><rect fill="#F1F1F1" height="10" style="stroke:#181818;stroke-width:0.5;" width="15" x="77.7939" y="448.6939"/><rect fill="#F1F1F1" height="2" style="stroke:#181818;stroke-width:0.5;" width="4" x="75.7939" y="450.6939"/><rect fill="#F1F1F1" height="2" style="stroke:#181818;stroke-width:0.5;" width="4" x="75.7939" y="454.6939"/><text fill="#000000" font-family="sans-serif" font-size="14" lengthAdjust="spacing" textLength="21.7839" x="51.01" y="476.6999">CLI</text></g><!--entity FastAPI--><g class="entity" data-qualified-name="Frontends.FastAPI" data-source-line="6" id="ent0004"><rect fill="#F1F1F1" height="46.7999" rx="2.5" ry="2.5" style="stroke:#181818;stroke-width:0.5;" width="89.7978" x="22" y="361.6939"/><rect fill="#F1F1F1" height="10" style="stroke:#181818;stroke-width:0.5;" width="15" x="91.7978" y="366.6939"/><rect fill="#F1F1F1" height="2" style="stroke:#181818;stroke-width:0.5;" width="4" x="89.7978" y="368.6939"/><rect fill="#F1F1F1" height="2" style="stroke:#181818;stroke-width:0.5;" width="4" x="89.7978" y="372.6939"/><text fill="#000000" font-family="sans-serif" font-size="14" lengthAdjust="spacing" textLength="49.7978" x="37" y="394.6999">FastAPI</text></g><!--entity FrontendCommandInput--><g class="entity" data-qualified-name="Command Layer.FrontendCommandInput" data-source-line="10" id="ent0006"><rect fill="#F1F1F1" height="46.7999" rx="2.5" ry="2.5" style="stroke:#181818;stroke-width:0.5;" width="191.7314" x="171.8" y="78.6939"/><rect fill="#F1F1F1" height="10" style="stroke:#181818;stroke-width:0.5;" width="15" x="343.5314" y="83.6939"/><rect fill="#F1F1F1" height="2" style="stroke:#181818;stroke-width:0.5;" width="4" x="341.5314" y="85.6939"/><rect fill="#F1F1F1" height="2" style="stroke:#181818;stroke-width:0.5;" width="4" x="341.5314" y="89.6939"/><text fill="#000000" font-family="sans-serif" font-size="14" lengthAdjust="spacing" textLength="151.7314" x="186.8" y="111.6999">FrontendCommandInput</text></g><!--entity build_commands()--><g class="entity" data-qualified-name="Command Layer.build_commands.." data-source-line="11" id="ent0007"><rect fill="#F1F1F1" height="46.7999" rx="2.5" ry="2.5" style="stroke:#181818;stroke-width:0.5;" width="155.1355" x="423.53" y="78.6939"/><rect fill="#F1F1F1" height="10" style="stroke:#181818;stroke-width:0.5;" width="15" x="558.6655" y="83.6939"/><rect fill="#F1F1F1" height="2" style="stroke:#181818;stroke-width:0.5;" width="4" x="556.6655" y="85.6939"/><rect fill="#F1F1F1" height="2" style="stroke:#181818;stroke-width:0.5;" width="4" x="556.6655" y="89.6939"/><text fill="#000000" font-family="sans-serif" font-size="14" lengthAdjust="spacing" textLength="115.1355" x="438.53" y="111.6999">build_commands()</text></g><!--entity Command--><g class="entity" data-qualified-name="Command Layer.Command" data-source-line="12" id="ent0008"><rect fill="#F1F1F1" height="46.7999" rx="2.5" ry="2.5" style="stroke:#181818;stroke-width:0.5;" width="104.5677" x="653.46" y="78.6939"/><rect fill="#F1F1F1" height="10" style="stroke:#181818;stroke-width:0.5;" width="15" x="738.0277" y="83.6939"/><rect fill="#F1F1F1" height="2" style="stroke:#181818;stroke-width:0.5;" width="4" x="736.0277" y="85.6939"/><rect fill="#F1F1F1" height="2" style="stroke:#181818;stroke-width:0.5;" width="4" x="736.0277" y="89.6939"/><text fill="#000000" font-family="sans-serif" font-size="14" lengthAdjust="spacing" textLength="64.5677" x="668.46" y="111.6999">Command</text></g><!--entity App--><g class="entity" data-qualified-name="Core.App" data-source-line="16" id="ent0010"><rect fill="#F1F1F1" height="46.7999" rx="2.5" ry="2.5" style="stroke:#181818;stroke-width:0.5;" width="64.9059" x="673.29" y="199.6939"/><rect fill="#F1F1F1" height="10" style="stroke:#181818;stroke-width:0.5;" width="15" x="718.1959" y="204.6939"/><rect fill="#F1F1F1" height="2" style="stroke:#181818;stroke-width:0.5;" width="4" x="716.1959" y="206.6939"/><rect fill="#F1F1F1" height="2" style="stroke:#181818;stroke-width:0.5;" width="4" x="716.1959" y="210.6939"/><text fill="#000000" font-family="sans-serif" font-size="14" lengthAdjust="spacing" textLength="24.9059" x="688.29" y="232.6999">App</text></g><!--entity DisplayVersionHandler--><g class="entity" data-qualified-name="Handlers.DisplayVersionHandler" data-source-line="20" id="ent0012"><rect fill="#F1F1F1" height="46.7999" rx="2.5" ry="2.5" style="stroke:#181818;stroke-width:0.5;" width="182.3654" x="832.83" y="491.6939"/><rect fill="#F1F1F1" height="10" style="stroke:#181818;stroke-width:0.5;" width="15" x="995.1954" y="496.6939"/><rect fill="#F1F1F1" height="2" style="stroke:#181818;stroke-width:0.5;" width="4" x="993.1954" y="498.6939"/><rect fill="#F1F1F1" height="2" style="stroke:#181818;stroke-width:0.5;" width="4" x="993.1954" y="502.6939"/><text fill="#000000" font-family="sans-serif" font-size="14" lengthAdjust="spacing" textLength="142.3654" x="847.83" y="524.6999">DisplayVersionHandler</text></g><!--entity UpdateAllHandler--><g class="entity" data-qualified-name="Handlers.UpdateAllHandler" data-source-line="21" id="ent0013"><rect fill="#F1F1F1" height="46.7999" rx="2.5" ry="2.5" style="stroke:#181818;stroke-width:0.5;" width="149.7035" x="849.16" y="327.6939"/><rect fill="#F1F1F1" height="10" style="stroke:#181818;stroke-width:0.5;" width="15" x="978.8635" y="332.6939"/><rect fill="#F1F1F1" height="2" style="stroke:#181818;stroke-width:0.5;" width="4" x="976.8635" y="334.6939"/><rect fill="#F1F1F1" height="2" style="stroke:#181818;stroke-width:0.5;" width="4" x="976.8635" y="338.6939"/><text fill="#000000" font-family="sans-serif" font-size="14" lengthAdjust="spacing" textLength="109.7035" x="864.16" y="360.6999">UpdateAllHandler</text></g><!--entity DisplayGraphHandler--><g class="entity" data-qualified-name="Handlers.DisplayGraphHandler" data-source-line="22" id="ent0014"><rect fill="#F1F1F1" height="46.7999" rx="2.5" ry="2.5" style="stroke:#181818;stroke-width:0.5;" width="173.8114" x="837.11" y="409.6939"/><rect fill="#F1F1F1" height="10" style="stroke:#181818;stroke-width:0.5;" width="15" x="990.9214" y="414.6939"/><rect fill="#F1F1F1" height="2" style="stroke:#181818;stroke-width:0.5;" width="4" x="988.9214" y="416.6939"/><rect fill="#F1F1F1" height="2" style="stroke:#181818;stroke-width:0.5;" width="4" x="988.9214" y="420.6939"/><text fill="#000000" font-family="sans-serif" font-size="14" lengthAdjust="spacing" textLength="133.8114" x="852.11" y="442.6999">DisplayGraphHandler</text></g><!--entity build_runtime()--><g class="entity" data-qualified-name="Runtime . Config.build_runtime.." data-source-line="26" id="ent0016"><rect fill="#F1F1F1" height="46.7999" rx="2.5" ry="2.5" style="stroke:#181818;stroke-width:0.5;" width="133.3516" x="200.99" y="402.6939"/><rect fill="#F1F1F1" height="10" style="stroke:#181818;stroke-width:0.5;" width="15" x="314.3416" y="407.6939"/><rect fill="#F1F1F1" height="2" style="stroke:#181818;stroke-width:0.5;" width="4" x="312.3416" y="409.6939"/><rect fill="#F1F1F1" height="2" style="stroke:#181818;stroke-width:0.5;" width="4" x="312.3416" y="413.6939"/><text fill="#000000" font-family="sans-serif" font-size="14" lengthAdjust="spacing" textLength="93.3516" x="215.99" y="435.6999">build_runtime()</text></g><!--entity Runtime--><g class="entity" data-qualified-name="Runtime . Config.Runtime" data-source-line="27" id="ent0017"><rect fill="#F1F1F1" height="46.7999" rx="2.5" ry="2.5" style="stroke:#181818;stroke-width:0.5;" width="92.1218" x="455.04" y="402.6939"/><rect fill="#F1F1F1" height="10" style="stroke:#181818;stroke-width:0.5;" width="15" x="527.1618" y="407.6939"/><rect fill="#F1F1F1" height="2" style="stroke:#181818;stroke-width:0.5;" width="4" x="525.1618" y="409.6939"/><rect fill="#F1F1F1" height="2" style="stroke:#181818;stroke-width:0.5;" width="4" x="525.1618" y="413.6939"/><text fill="#000000" font-family="sans-serif" font-size="14" lengthAdjust="spacing" textLength="52.1218" x="470.04" y="435.6999">Runtime</text></g><!--entity Paths--><g class="entity" data-qualified-name="Runtime . Config.Paths" data-source-line="28" id="ent0018"><rect fill="#F1F1F1" height="46.7999" rx="2.5" ry="2.5" style="stroke:#181818;stroke-width:0.5;" width="75.7979" x="667.85" y="566.6939"/><rect fill="#F1F1F1" height="10" style="stroke:#181818;stroke-width:0.5;" width="15" x="723.6479" y="571.6939"/><rect fill="#F1F1F1" height="2" style="stroke:#181818;stroke-width:0.5;" width="4" x="721.6479" y="573.6939"/><rect fill="#F1F1F1" height="2" style="stroke:#181818;stroke-width:0.5;" width="4" x="721.6479" y="577.6939"/><text fill="#000000" font-family="sans-serif" font-size="14" lengthAdjust="spacing" textLength="35.7979" x="682.85" y="599.6999">Paths</text></g><!--entity Logging Config--><g class="entity" data-qualified-name="Runtime . Config.Logging Config" data-source-line="29" id="ent0019"><rect fill="#F1F1F1" height="46.7999" rx="2.5" ry="2.5" style="stroke:#181818;stroke-width:0.5;" width="134.1636" x="638.66" y="484.6939"/><rect fill="#F1F1F1" height="10" style="stroke:#181818;stroke-width:0.5;" width="15" x="752.8236" y="489.6939"/><rect fill="#F1F1F1" height="2" style="stroke:#181818;stroke-width:0.5;" width="4" x="750.8236" y="491.6939"/><rect fill="#F1F1F1" height="2" style="stroke:#181818;stroke-width:0.5;" width="4" x="750.8236" y="495.6939"/><text fill="#000000" font-family="sans-serif" font-size="14" lengthAdjust="spacing" textLength="94.1636" x="653.66" y="517.6999">Logging Config</text></g><!--entity DB Config--><g class="entity" data-qualified-name="Runtime . Config.DB Config" data-source-line="30" id="ent0020"><rect fill="#F1F1F1" height="46.7999" rx="2.5" ry="2.5" style="stroke:#181818;stroke-width:0.5;" width="103.7977" x="653.85" y="402.6939"/><rect fill="#F1F1F1" height="10" style="stroke:#181818;stroke-width:0.5;" width="15" x="737.6477" y="407.6939"/><rect fill="#F1F1F1" height="2" style="stroke:#181818;stroke-width:0.5;" width="4" x="735.6477" y="409.6939"/><rect fill="#F1F1F1" height="2" style="stroke:#181818;stroke-width:0.5;" width="4" x="735.6477" y="413.6939"/><text fill="#000000" font-family="sans-serif" font-size="14" lengthAdjust="spacing" textLength="63.7977" x="668.85" y="435.6999">DB Config</text></g><!--entity Ticker Config--><g class="entity" data-qualified-name="Runtime . Config.Ticker Config" data-source-line="31" id="ent0021"><rect fill="#F1F1F1" height="46.7999" rx="2.5" ry="2.5" style="stroke:#181818;stroke-width:0.5;" width="122.4597" x="644.52" y="320.6939"/><rect fill="#F1F1F1" height="10" style="stroke:#181818;stroke-width:0.5;" width="15" x="746.9797" y="325.6939"/><rect fill="#F1F1F1" height="2" style="stroke:#181818;stroke-width:0.5;" width="4" x="744.9797" y="327.6939"/><rect fill="#F1F1F1" height="2" style="stroke:#181818;stroke-width:0.5;" width="4" x="744.9797" y="331.6939"/><text fill="#000000" font-family="sans-serif" font-size="14" lengthAdjust="spacing" textLength="82.4597" x="659.52" y="353.6999">Ticker Config</text></g><!--entity MarketRepo--><g class="entity" data-qualified-name="Infrastructure Services.MarketRepo" data-source-line="35" id="ent0023"><rect fill="#F1F1F1" height="46.7999" rx="2.5" ry="2.5" style="stroke:#181818;stroke-width:0.5;" width="116.2437" x="1264.65" y="330.6939"/><rect fill="#F1F1F1" height="10" style="stroke:#181818;stroke-width:0.5;" width="15" x="1360.8937" y="335.6939"/><rect fill="#F1F1F1" height="2" style="stroke:#181818;stroke-width:0.5;" width="4" x="1358.8937" y="337.6939"/><rect fill="#F1F1F1" height="2" style="stroke:#181818;stroke-width:0.5;" width="4" x="1358.8937" y="341.6939"/><text fill="#000000" font-family="sans-serif" font-size="14" lengthAdjust="spacing" textLength="76.2437" x="1279.65" y="363.6999">MarketRepo</text></g><!--entity TickerService--><g class="entity" data-qualified-name="Infrastructure Services.TickerService" data-source-line="36" id="ent0024"><rect fill="#F1F1F1" height="46.7999" rx="2.5" ry="2.5" style="stroke:#181818;stroke-width:0.5;" width="124.7837" x="1077.53" y="251.6939"/><rect fill="#F1F1F1" height="10" style="stroke:#181818;stroke-width:0.5;" width="15" x="1182.3137" y="256.6939"/><rect fill="#F1F1F1" height="2" style="stroke:#181818;stroke-width:0.5;" width="4" x="1180.3137" y="258.6939"/><rect fill="#F1F1F1" height="2" style="stroke:#181818;stroke-width:0.5;" width="4" x="1180.3137" y="262.6939"/><text fill="#000000" font-family="sans-serif" font-size="14" lengthAdjust="spacing" textLength="84.7837" x="1092.53" y="284.6999">TickerService</text></g><!--entity MarketService--><g class="entity" data-qualified-name="Infrastructure Services.MarketService" data-source-line="37" id="ent0025"><rect fill="#F1F1F1" height="46.7999" rx="2.5" ry="2.5" style="stroke:#181818;stroke-width:0.5;" width="129.4596" x="1075.19" y="169.6939"/><rect fill="#F1F1F1" height="10" style="stroke:#181818;stroke-width:0.5;" width="15" x="1184.6496" y="174.6939"/><rect fill="#F1F1F1" height="2" style="stroke:#181818;stroke-width:0.5;" width="4" x="1182.6496" y="176.6939"/><rect fill="#F1F1F1" height="2" style="stroke:#181818;stroke-width:0.5;" width="4" x="1182.6496" y="180.6939"/><text fill="#000000" font-family="sans-serif" font-size="14" lengthAdjust="spacing" textLength="89.4596" x="1090.19" y="202.6999">MarketService</text></g><!--entity YFClient--><g class="entity" data-qualified-name="Infrastructure Services.YFClient" data-source-line="38" id="ent0026"><rect fill="#F1F1F1" height="46.7999" rx="2.5" ry="2.5" style="stroke:#181818;stroke-width:0.5;" width="93.6758" x="1275.94" y="166.6939"/><rect fill="#F1F1F1" height="10" style="stroke:#181818;stroke-width:0.5;" width="15" x="1349.6158" y="171.6939"/><rect fill="#F1F1F1" height="2" style="stroke:#181818;stroke-width:0.5;" width="4" x="1347.6158" y="173.6939"/><rect fill="#F1F1F1" height="2" style="stroke:#181818;stroke-width:0.5;" width="4" x="1347.6158" y="177.6939"/><text fill="#000000" font-family="sans-serif" font-size="14" lengthAdjust="spacing" textLength="53.6758" x="1290.94" y="199.6999">YFClient</text></g><!--entity TickerClient--><g class="entity" data-qualified-name="Infrastructure Services.TickerClient" data-source-line="39" id="ent0027"><rect fill="#F1F1F1" height="46.7999" rx="2.5" ry="2.5" style="stroke:#181818;stroke-width:0.5;" width="113.8917" x="1265.83" y="248.6939"/><rect fill="#F1F1F1" height="10" style="stroke:#181818;stroke-width:0.5;" width="15" x="1359.7217" y="253.6939"/><rect fill="#F1F1F1" height="2" style="stroke:#181818;stroke-width:0.5;" width="4" x="1357.7217" y="255.6939"/><rect fill="#F1F1F1" height="2" style="stroke:#181818;stroke-width:0.5;" width="4" x="1357.7217" y="259.6939"/><text fill="#000000" font-family="sans-serif" font-size="14" lengthAdjust="spacing" textLength="73.8917" x="1280.83" y="281.6999">TickerClient</text></g><!--entity PostgreSQL--><g class="entity" data-qualified-name="Infrastructure Services.PostgreSQL" data-source-line="40" id="ent0028"><rect fill="#F1F1F1" height="46.7999" rx="2.5" ry="2.5" style="stroke:#181818;stroke-width:0.5;" width="116.2577" x="1440.9" y="330.6939"/><rect fill="#F1F1F1" height="10" style="stroke:#181818;stroke-width:0.5;" width="15" x="1537.1577" y="335.6939"/><rect fill="#F1F1F1" height="2" style="stroke:#181818;stroke-width:0.5;" width="4" x="1535.1577" y="337.6939"/><rect fill="#F1F1F1" height="2" style="stroke:#181818;stroke-width:0.5;" width="4" x="1535.1577" y="341.6939"/><text fill="#000000" font-family="sans-serif" font-size="14" lengthAdjust="spacing" textLength="76.2577" x="1455.9" y="363.6999">PostgreSQL</text></g><!--entity Event--><g class="entity" data-qualified-name="Output.Event" data-source-line="44" id="ent0030"><rect fill="#F1F1F1" height="46.7999" rx="2.5" ry="2.5" style="stroke:#181818;stroke-width:0.5;" width="75.7979" x="1102.02" y="572.6939"/><rect fill="#F1F1F1" height="10" style="stroke:#181818;stroke-width:0.5;" width="15" x="1157.8179" y="577.6939"/><rect fill="#F1F1F1" height="2" style="stroke:#181818;stroke-width:0.5;" width="4" x="1155.8179" y="579.6939"/><rect fill="#F1F1F1" height="2" style="stroke:#181818;stroke-width:0.5;" width="4" x="1155.8179" y="583.6939"/><text fill="#000000" font-family="sans-serif" font-size="14" lengthAdjust="spacing" textLength="35.7979" x="1117.02" y="605.6999">Event</text></g><!--entity EvtLog--><g class="entity" data-qualified-name="Output.EvtLog" data-source-line="45" id="ent0031"><rect fill="#F1F1F1" height="46.7999" rx="2.5" ry="2.5" style="stroke:#181818;stroke-width:0.5;" width="83.5818" x="1280.98" y="490.6939"/><rect fill="#F1F1F1" height="10" style="stroke:#181818;stroke-width:0.5;" width="15" x="1344.5618" y="495.6939"/><rect fill="#F1F1F1" height="2" style="stroke:#181818;stroke-width:0.5;" width="4" x="1342.5618" y="497.6939"/><rect fill="#F1F1F1" height="2" style="stroke:#181818;stroke-width:0.5;" width="4" x="1342.5618" y="501.6939"/><text fill="#000000" font-family="sans-serif" font-size="14" lengthAdjust="spacing" textLength="43.5818" x="1295.98" y="523.6999">EvtLog</text></g><!--entity EvtProgress--><g class="entity" data-qualified-name="Output.EvtProgress" data-source-line="46" id="ent0032"><rect fill="#F1F1F1" height="46.7999" rx="2.5" ry="2.5" style="stroke:#181818;stroke-width:0.5;" width="116.2437" x="1264.65" y="736.6939"/><rect fill="#F1F1F1" height="10" style="stroke:#181818;stroke-width:0.5;" width="15" x="1360.8937" y="741.6939"/><rect fill="#F1F1F1" height="2" style="stroke:#181818;stroke-width:0.5;" width="4" x="1358.8937" y="743.6939"/><rect fill="#F1F1F1" height="2" style="stroke:#181818;stroke-width:0.5;" width="4" x="1358.8937" y="747.6939"/><text fill="#000000" font-family="sans-serif" font-size="14" lengthAdjust="spacing" textLength="76.2437" x="1279.65" y="769.6999">EvtProgress</text></g><!--entity EvtResult--><g class="entity" data-qualified-name="Output.EvtResult" data-source-line="47" id="ent0033"><rect fill="#F1F1F1" height="46.7999" rx="2.5" ry="2.5" style="stroke:#181818;stroke-width:0.5;" width="99.9057" x="1272.82" y="654.6939"/><rect fill="#F1F1F1" height="10" style="stroke:#181818;stroke-width:0.5;" width="15" x="1352.7257" y="659.6939"/><rect fill="#F1F1F1" height="2" style="stroke:#181818;stroke-width:0.5;" width="4" x="1350.7257" y="661.6939"/><rect fill="#F1F1F1" height="2" style="stroke:#181818;stroke-width:0.5;" width="4" x="1350.7257" y="665.6939"/><text fill="#000000" font-family="sans-serif" font-size="14" lengthAdjust="spacing" textLength="59.9057" x="1287.82" y="687.6999">EvtResult</text></g><!--entity EvtError--><g class="entity" data-qualified-name="Output.EvtError" data-source-line="48" id="ent0034"><rect fill="#F1F1F1" height="46.7999" rx="2.5" ry="2.5" style="stroke:#181818;stroke-width:0.5;" width="91.3378" x="1277.11" y="572.6939"/><rect fill="#F1F1F1" height="10" style="stroke:#181818;stroke-width:0.5;" width="15" x="1348.4478" y="577.6939"/><rect fill="#F1F1F1" height="2" style="stroke:#181818;stroke-width:0.5;" width="4" x="1346.4478" y="579.6939"/><rect fill="#F1F1F1" height="2" style="stroke:#181818;stroke-width:0.5;" width="4" x="1346.4478" y="583.6939"/><text fill="#000000" font-family="sans-serif" font-size="14" lengthAdjust="spacing" textLength="51.3378" x="1292.11" y="605.6999">EvtError</text></g><!--link CLI to FrontendCommandInput--><g class="link" data-entity-1="ent0003" data-entity-2="ent0006" data-link-type="dependency" data-source-line="51" id="lnk35"><path d="M98.26,456.1739 C112.02,449.6139 127.12,439.8339 135.8,426.0939 C150.22,403.2439 139.44,330.7939 147.8,305.0939 C170.71,234.6039 217.2751,166.8203 244.5351,130.5503" fill="none" id="CLI-to-FrontendCommandInput" style="stroke:#181818;stroke-width:1;"/><polygon fill="#181818" points="248.14,125.7539,239.5351,130.5452,245.1359,129.7509,245.9303,135.3517,248.14,125.7539" style="stroke:#181818;stroke-width:1;"/></g><!--link FastAPI to FrontendCommandInput--><g class="link" data-entity-1="ent0004" data-entity-2="ent0006" data-link-type="dependency" data-source-line="52" id="lnk36"><path d="M84.5,361.4539 C121.92,308.1839 209.0112,184.1737 246.5212,130.7737" fill="none" id="FastAPI-to-FrontendCommandInput" style="stroke:#181818;stroke-width:1;"/><polygon fill="#181818" points="249.97,125.8639,241.5236,130.9294,247.096,129.9554,248.07,135.5278,249.97,125.8639" style="stroke:#181818;stroke-width:1;"/></g><!--link FrontendCommandInput to build_commands()--><g class="link" data-entity-1="ent0006" data-entity-2="ent0007" data-link-type="dependency" data-source-line="54" id="lnk37"><path d="M363.8,102.0939 C383.62,102.0939 398.28,102.0939 417.34,102.0939" fill="none" id="FrontendCommandInput-to-build_commands()" style="stroke:#181818;stroke-width:1;"/><polygon fill="#181818" points="423.34,102.0939,414.34,98.0939,418.34,102.0939,414.34,106.0939,423.34,102.0939" style="stroke:#181818;stroke-width:1;"/></g><!--link build_commands() to Command--><g class="link" data-entity-1="ent0007" data-entity-2="ent0008" data-link-type="dependency" data-source-line="55" id="lnk38"><path d="M579,102.0939 C603.74,102.0939 624.56,102.0939 647.04,102.0939" fill="none" id="build_commands()-to-Command" style="stroke:#181818;stroke-width:1;"/><polygon fill="#181818" points="653.04,102.0939,644.04,98.0939,648.04,102.0939,644.04,106.0939,653.04,102.0939" style="stroke:#181818;stroke-width:1;"/></g><!--link CLI to build_runtime()--><g class="link" data-entity-1="ent0003" data-entity-2="ent0016" data-link-type="dependency" data-source-line="57" id="lnk39"><path d="M98.09,460.8639 C125.24,455.2639 160.1937,448.0558 194.8637,440.9058" fill="none" id="CLI-to-build_runtime()" style="stroke:#181818;stroke-width:1;"/><polygon fill="#181818" points="200.74,439.6939,191.1176,437.5942,195.8431,440.7038,192.7334,445.4293,200.74,439.6939" style="stroke:#181818;stroke-width:1;"/></g><!--link FastAPI to build_runtime()--><g class="link" data-entity-1="ent0004" data-entity-2="ent0016" data-link-type="dependency" data-source-line="58" id="lnk40"><path d="M112.01,394.1939 C138.09,399.5739 165.7339,405.2708 194.8939,411.2908" fill="none" id="FastAPI-to-build_runtime()" style="stroke:#181818;stroke-width:1;"/><polygon fill="#181818" points="200.77,412.5039,192.7646,406.7669,195.8733,411.493,191.1471,414.6016,200.77,412.5039" style="stroke:#181818;stroke-width:1;"/></g><!--link build_runtime() to Runtime--><g class="link" data-entity-1="ent0016" data-entity-2="ent0017" data-link-type="dependency" data-source-line="59" id="lnk41"><path d="M334.67,426.0939 C373.02,426.0939 414.35,426.0939 448.55,426.0939" fill="none" id="build_runtime()-to-Runtime" style="stroke:#181818;stroke-width:1;"/><polygon fill="#181818" points="454.55,426.0939,445.55,422.0939,449.55,426.0939,445.55,430.0939,454.55,426.0939" style="stroke:#181818;stroke-width:1;"/></g><!--link Runtime to Paths--><g class="link" data-entity-1="ent0017" data-entity-2="ent0018" data-link-type="dependency" data-source-line="60" id="lnk42"><path d="M525.64,449.6839 C552,475.5139 596.57,517.4739 638.66,549.0939 C647.73,555.9039 652.8631,559.4982 662.5231,565.4982" fill="none" id="Runtime-to-Paths" style="stroke:#181818;stroke-width:1;"/><polygon fill="#181818" points="667.62,568.6639,662.0852,560.5174,663.3726,566.0258,657.8642,567.3132,667.62,568.6639" style="stroke:#181818;stroke-width:1;"/></g><!--link Runtime to Logging Config--><g class="link" data-entity-1="ent0017" data-entity-2="ent0019" data-link-type="dependency" data-source-line="61" id="lnk43"><path d="M547.58,444.4939 C576.63,456.2539 609.038,469.3636 640.378,482.0436" fill="none" id="Runtime-to-Logging Config" style="stroke:#181818;stroke-width:1;"/><polygon fill="#181818" points="645.94,484.2939,639.0972,477.2104,641.305,482.4186,636.0968,484.6264,645.94,484.2939" style="stroke:#181818;stroke-width:1;"/></g><!--link Runtime to DB Config--><g class="link" data-entity-1="ent0017" data-entity-2="ent0020" data-link-type="dependency" data-source-line="62" id="lnk44"><path d="M547.58,426.0939 C578.97,426.0939 614.76,426.0939 647.35,426.0939" fill="none" id="Runtime-to-DB Config" style="stroke:#181818;stroke-width:1;"/><polygon fill="#181818" points="653.35,426.0939,644.35,422.0939,648.35,426.0939,644.35,430.0939,653.35,426.0939" style="stroke:#181818;stroke-width:1;"/></g><!--link Runtime to Ticker Config--><g class="link" data-entity-1="ent0017" data-entity-2="ent0021" data-link-type="dependency" data-source-line="63" id="lnk45"><path d="M547.58,407.6939 C576.63,395.9339 609.038,382.8243 640.378,370.1443" fill="none" id="Runtime-to-Ticker Config" style="stroke:#181818;stroke-width:1;"/><polygon fill="#181818" points="645.94,367.8939,636.0968,367.5614,641.305,369.7692,639.0972,374.9774,645.94,367.8939" style="stroke:#181818;stroke-width:1;"/></g><!--link Command to App--><g class="link" data-entity-1="ent0008" data-entity-2="ent0010" data-link-type="dependency" data-source-line="65" id="lnk46"><path d="M705.75,125.6739 C705.75,150.2739 705.75,168.8639 705.75,193.4639" fill="none" id="Command-to-App" style="stroke:#181818;stroke-width:1;"/><polygon fill="#181818" points="705.75,199.4639,709.75,190.4639,705.75,194.4639,701.75,190.4639,705.75,199.4639" style="stroke:#181818;stroke-width:1;"/></g><!--link Runtime to App--><g class="link" data-entity-1="ent0017" data-entity-2="ent0010" data-link-type="dependency" data-source-line="66" id="lnk47"><path d="M525.74,402.4139 C564.68,363.3939 637.6506,290.2998 676.7006,251.1898" fill="none" id="Runtime-to-App" style="stroke:#181818;stroke-width:1;"/><polygon fill="#181818" points="680.94,246.9439,671.7503,250.4865,677.4072,250.4822,677.4115,256.139,680.94,246.9439" style="stroke:#181818;stroke-width:1;"/></g><!--link App to DisplayVersionHandler--><g class="link" data-entity-1="ent0010" data-entity-2="ent0012" data-link-type="dependency" data-source-line="68" id="lnk48"><path d="M738.4,242.5639 C758.91,257.0539 784.09,278.8339 796.83,305.0939 C813.26,338.9739 786.09,444.0839 808.83,474.0939 C815.19,482.4839 818.2359,486.1432 827.3659,491.4632" fill="none" id="App-to-DisplayVersionHandler" style="stroke:#181818;stroke-width:1;"/><polygon fill="#181818" points="832.55,494.4839,826.7877,486.4967,828.2299,491.9666,822.76,493.4089,832.55,494.4839" style="stroke:#181818;stroke-width:1;"/></g><!--link App to UpdateAllHandler--><g class="link" data-entity-1="ent0010" data-entity-2="ent0013" data-link-type="dependency" data-source-line="69" id="lnk49"><path d="M738.37,242.5439 C758.48,254.8539 785.1,271.0339 808.83,285.0939 C832.76,299.2739 854.4973,311.8752 876.1873,324.3352" fill="none" id="App-to-UpdateAllHandler" style="stroke:#181818;stroke-width:1;"/><polygon fill="#181818" points="881.39,327.3239,875.5785,319.3724,877.0545,324.8333,871.5935,326.3093,881.39,327.3239" style="stroke:#181818;stroke-width:1;"/></g><!--link App to DisplayGraphHandler--><g class="link" data-entity-1="ent0010" data-entity-2="ent0014" data-link-type="dependency" data-source-line="70" id="lnk50"><path d="M738.29,243.1539 C758.48,257.7739 783.33,279.4539 796.83,305.0939 C815.02,339.6339 784.24,361.7839 808.83,392.0939 C816.33,401.3339 820.7602,405.719 831.4002,411.269" fill="none" id="App-to-DisplayGraphHandler" style="stroke:#181818;stroke-width:1;"/><polygon fill="#181818" points="836.72,414.0439,830.5903,406.3351,832.2869,411.7315,826.8904,413.4281,836.72,414.0439" style="stroke:#181818;stroke-width:1;"/></g><!--link App to MarketRepo--><g class="link" data-entity-1="ent0010" data-entity-2="ent0023" data-link-type="dependency" data-source-line="72" id="lnk51"><path d="M738.48,204.7839 C822.84,158.7839 1056.38,49.1139 1204.65,152.0939 C1267.37,195.6539 1218.29,252.4139 1264.65,313.0939 C1269.47,319.3939 1270.8283,321.4038 1277.1883,326.4738" fill="none" id="App-to-MarketRepo" style="stroke:#181818;stroke-width:1;"/><polygon fill="#181818" points="1281.88,330.2139,1277.3359,321.476,1277.9703,327.0972,1272.3491,327.7316,1281.88,330.2139" style="stroke:#181818;stroke-width:1;"/></g><!--link App to TickerService--><g class="link" data-entity-1="ent0010" data-entity-2="ent0024" data-link-type="dependency" data-source-line="73" id="lnk52"><path d="M738.53,226.9139 C809.87,235.5039 977.863,255.717 1071.263,266.957" fill="none" id="App-to-TickerService" style="stroke:#181818;stroke-width:1;"/><polygon fill="#181818" points="1077.22,267.6739,1068.7624,262.6272,1072.2558,267.0765,1067.8065,270.5699,1077.22,267.6739" style="stroke:#181818;stroke-width:1;"/></g><!--link App to MarketService--><g class="link" data-entity-1="ent0010" data-entity-2="ent0025" data-link-type="dependency" data-source-line="74" id="lnk53"><path d="M738.53,220.8839 C809.29,215.9739 974.9844,204.4693 1068.9244,197.9493" fill="none" id="App-to-MarketService" style="stroke:#181818;stroke-width:1;"/><polygon fill="#181818" points="1074.91,197.5339,1065.6546,194.1667,1069.922,197.8801,1066.2086,202.1475,1074.91,197.5339" style="stroke:#181818;stroke-width:1;"/></g><!--link TickerService to TickerClient--><g class="link" data-entity-1="ent0024" data-entity-2="ent0027" data-link-type="dependency" data-source-line="76" id="lnk54"><path d="M1202.66,274.0739 C1223.02,273.7339 1239.5508,273.4532 1259.4808,273.1232" fill="none" id="TickerService-to-TickerClient" style="stroke:#181818;stroke-width:1;"/><polygon fill="#181818" points="1265.48,273.0239,1256.415,269.1735,1260.4807,273.1067,1256.5475,277.1724,1265.48,273.0239" style="stroke:#181818;stroke-width:1;"/></g><!--link MarketService to YFClient--><g class="link" data-entity-1="ent0025" data-entity-2="ent0026" data-link-type="dependency" data-source-line="77" id="lnk55"><path d="M1204.94,192.0339 C1228.21,191.6439 1248.0408,191.3118 1269.4808,190.9618" fill="none" id="MarketService-to-YFClient" style="stroke:#181818;stroke-width:1;"/><polygon fill="#181818" points="1275.48,190.8639,1266.4159,187.0113,1270.4807,190.9455,1266.5465,195.0103,1275.48,190.8639" style="stroke:#181818;stroke-width:1;"/></g><!--link MarketRepo to PostgreSQL--><g class="link" data-entity-1="ent0023" data-entity-2="ent0028" data-link-type="dependency" data-source-line="78" id="lnk56"><path d="M1381.31,354.0939 C1400.35,354.0939 1415.52,354.0939 1434.55,354.0939" fill="none" id="MarketRepo-to-PostgreSQL" style="stroke:#181818;stroke-width:1;"/><polygon fill="#181818" points="1440.55,354.0939,1431.55,350.0939,1435.55,354.0939,1431.55,358.0939,1440.55,354.0939" style="stroke:#181818;stroke-width:1;"/></g><!--link TickerService to MarketRepo--><g class="link" data-entity-1="ent0024" data-entity-2="ent0023" data-link-type="dependency" data-source-line="79" id="lnk57"><path d="M1195.19,298.7939 C1217.97,308.7539 1238.9218,317.9018 1261.7418,327.8718" fill="none" id="TickerService-to-MarketRepo" style="stroke:#181818;stroke-width:1;"/><polygon fill="#181818" points="1267.24,330.2739,1260.5942,323.0053,1262.6582,328.2721,1257.3913,330.3362,1267.24,330.2739" style="stroke:#181818;stroke-width:1;"/></g><!--link DisplayGraphHandler to MarketRepo--><g class="link" data-entity-1="ent0014" data-entity-2="ent0023" data-link-type="dependency" data-source-line="80" id="lnk58"><path d="M1011.1,415.9539 C1087.8,400.6839 1191.9855,379.9353 1258.4455,366.7053" fill="none" id="DisplayGraphHandler-to-MarketRepo" style="stroke:#181818;stroke-width:1;"/><polygon fill="#181818" points="1264.33,365.5339,1254.7222,363.368,1259.4262,366.5101,1256.2841,371.2141,1264.33,365.5339" style="stroke:#181818;stroke-width:1;"/></g><!--link UpdateAllHandler to TickerService--><g class="link" data-entity-1="ent0013" data-entity-2="ent0024" data-link-type="dependency" data-source-line="81" id="lnk59"><path d="M992.11,327.2539 C1019.31,317.5939 1044.8666,308.5136 1071.5066,299.0436" fill="none" id="UpdateAllHandler-to-TickerService" style="stroke:#181818;stroke-width:1;"/><polygon fill="#181818" points="1077.16,297.0339,1067.3401,296.2795,1072.4488,298.7086,1070.0197,303.8174,1077.16,297.0339" style="stroke:#181818;stroke-width:1;"/></g><!--link UpdateAllHandler to MarketService--><g class="link" data-entity-1="ent0013" data-entity-2="ent0025" data-link-type="dependency" data-source-line="82" id="lnk60"><path d="M946.44,327.2239 C970.19,301.7739 1010.55,261.4539 1051.19,234.0939 C1060.54,227.8039 1065.6252,224.6606 1075.9852,219.5206" fill="none" id="UpdateAllHandler-to-MarketService" style="stroke:#181818;stroke-width:1;"/><polygon fill="#181818" points="1081.36,216.8539,1071.52,217.2707,1076.881,219.0761,1075.0755,224.4371,1081.36,216.8539" style="stroke:#181818;stroke-width:1;"/></g><!--link UpdateAllHandler to MarketRepo--><g class="link" data-entity-1="ent0013" data-entity-2="ent0023" data-link-type="dependency" data-source-line="83" id="lnk61"><path d="M999.17,351.6539 C1075.99,352.2339 1188.4002,353.0885 1258.3702,353.6185" fill="none" id="UpdateAllHandler-to-MarketRepo" style="stroke:#181818;stroke-width:1;"/><polygon fill="#181818" points="1264.37,353.6639,1255.4006,349.5959,1259.3701,353.626,1255.34,357.5956,1264.37,353.6639" style="stroke:#181818;stroke-width:1;"/></g><!--link DisplayVersionHandler to Event--><g class="link" data-entity-1="ent0012" data-entity-2="ent0030" data-link-type="dependency" data-source-line="85" id="lnk62"><path d="M988.03,538.9539 C1025.01,552.9539 1064.8495,568.0373 1096.1395,579.8973" fill="none" id="DisplayVersionHandler-to-Event" style="stroke:#181818;stroke-width:1;"/><polygon fill="#181818" points="1101.75,582.0239,1094.752,575.0937,1097.0746,580.2518,1091.9165,582.5744,1101.75,582.0239" style="stroke:#181818;stroke-width:1;"/></g><!--link UpdateAllHandler to Event--><g class="link" data-entity-1="ent0013" data-entity-2="ent0030" data-link-type="dependency" data-source-line="86" id="lnk63"><path d="M999.08,368.2639 C1013.53,374.0939 1027.74,381.8339 1039.19,392.0939 C1094.99,442.0639 1121.426,524.4178 1132.106,566.5578" fill="none" id="UpdateAllHandler-to-Event" style="stroke:#181818;stroke-width:1;"/><polygon fill="#181818" points="1133.58,572.3739,1135.2463,562.667,1132.3516,567.5271,1127.4915,564.6324,1133.58,572.3739" style="stroke:#181818;stroke-width:1;"/></g><!--link DisplayGraphHandler to Event--><g class="link" data-entity-1="ent0014" data-entity-2="ent0030" data-link-type="dependency" data-source-line="87" id="lnk64"><path d="M1008.15,456.8639 C1019.07,461.7039 1029.73,467.4139 1039.19,474.0939 C1076.95,500.7739 1105.1496,540.2999 1122.1096,567.5499" fill="none" id="DisplayGraphHandler-to-Event" style="stroke:#181818;stroke-width:1;"/><polygon fill="#181818" points="1125.28,572.6439,1123.9204,562.8894,1122.638,568.3989,1117.1284,567.1166,1125.28,572.6439" style="stroke:#181818;stroke-width:1;"/></g><!--link Event to EvtLog--><g class="link" data-entity-1="ent0030" data-entity-2="ent0031" data-link-type="dependency" data-source-line="89" id="lnk65"><path d="M1177.96,579.3039 C1207.82,565.7639 1244.3254,549.2115 1275.2254,535.2015" fill="none" id="Event-to-EvtLog" style="stroke:#181818;stroke-width:1;"/><polygon fill="#181818" points="1280.69,532.7239,1270.8414,532.7973,1276.1362,534.7886,1274.1449,540.0834,1280.69,532.7239" style="stroke:#181818;stroke-width:1;"/></g><!--link Event to EvtProgress--><g class="link" data-entity-1="ent0030" data-entity-2="ent0032" data-link-type="dependency" data-source-line="90" id="lnk66"><path d="M1162.69,619.8939 C1186.62,645.5439 1226.74,686.9939 1264.65,719.0939 C1271.55,724.9339 1274.3835,727.2768 1281.8235,732.7068" fill="none" id="Event-to-EvtProgress" style="stroke:#181818;stroke-width:1;"/><polygon fill="#181818" points="1286.67,736.2439,1281.7584,727.7072,1282.6313,733.2963,1277.0422,734.1692,1286.67,736.2439" style="stroke:#181818;stroke-width:1;"/></g><!--link Event to EvtResult--><g class="link" data-entity-1="ent0030" data-entity-2="ent0033" data-link-type="dependency" data-source-line="91" id="lnk67"><path d="M1177.96,612.8839 C1205.24,625.2539 1237.1554,639.7263 1266.9754,653.2463" fill="none" id="Event-to-EvtResult" style="stroke:#181818;stroke-width:1;"/><polygon fill="#181818" points="1272.44,655.7239,1265.8948,648.3645,1267.8862,653.6593,1262.5914,655.6506,1272.44,655.7239" style="stroke:#181818;stroke-width:1;"/></g><!--link Event to EvtError--><g class="link" data-entity-1="ent0030" data-entity-2="ent0034" data-link-type="dependency" data-source-line="92" id="lnk68"><path d="M1177.96,596.0939 C1206.58,596.0939 1240.33,596.0939 1270.79,596.0939" fill="none" id="Event-to-EvtError" style="stroke:#181818;stroke-width:1;"/><polygon fill="#181818" points="1276.79,596.0939,1267.79,592.0939,1271.79,596.0939,1267.79,600.0939,1276.79,596.0939" style="stroke:#181818;stroke-width:1;"/></g><!--link Event to CLI--><g class="link" data-entity-1="ent0030" data-entity-2="ent0003" data-link-type="dependency" data-source-line="94" id="lnk69"><path d="M1121.64,619.8339 C1103.73,642.4539 1073.59,675.4539 1039.19,692.0939 C904.96,757.0039 855.85,737.0939 706.75,737.0939 C500.1,737.0939 500.1,737.0939 500.1,737.0939 C342.25,737.0939 270.7,791.1439 147.8,692.0939 C84.86,641.3739 71.8118,543.363 68.9918,496.683" fill="none" id="Event-to-CLI" style="stroke:#181818;stroke-width:1;"/><polygon fill="#181818" points="68.63,490.6939,65.18,499.9187,68.9315,495.6848,73.1654,499.4363,68.63,490.6939" style="stroke:#181818;stroke-width:1;"/></g><!--link Event to FastAPI--><g class="link" data-entity-1="ent0030" data-entity-2="ent0004" data-link-type="dependency" data-source-line="95" id="lnk70"><path d="M1101.68,606.2739 C1027.25,625.6839 854.58,666.0939 706.75,666.0939 C500.1,666.0939 500.1,666.0939 500.1,666.0939 C342.66,666.0939 256.56,742.9239 147.8,629.0939 C116.58,596.4239 159.16,464.7739 135.8,426.0939 C130.1,416.6639 126.4149,412.3248 117.0449,406.4148" fill="none" id="Event-to-FastAPI" style="stroke:#181818;stroke-width:1;"/><polygon fill="#181818" points="111.97,403.2139,117.4484,411.3985,116.1991,405.8813,121.7162,404.632,111.97,403.2139" style="stroke:#181818;stroke-width:1;"/></g><?plantuml-src VLJHhjCm37tFLqJtwV8myGT8OsmmQUYENK12w0g5rkkYPKdbf9CcnByJ4gTBq_O-rJa-Tkpuk0gEZZl3KJOdnsk9K3bfD7FIAU0NWMTm2w65kbbf5w0RgO4l-5Oxq3NKV8dLIJeVr24mrehgB1hW3niqWM4V-1_6-S_LRllo_xiHrYtttlwRaLVcSX6wvZjn0wI0b81yMzrsBcJutKbL_weYR1_V191OPLe4ohPisw7lasShm5JU1sbR9MxVFUAR9sV8_AsjXOEbKZb8z8yesbEFv-aFdNRo0lmjNnbzb0rT4sl7wAJIYHhilN0d6woTQVnBDnGUBtsVdxxAwWpO8_dbMtr4_ypOXQ7mPy2hh22r-ZcCz02joV8Gv-LEo94VcvMIe5qMa05xOrs3yFnbDopZgND-PdJh-fhewwlppILpZyR7MflE1x2TwebhH1DVrkk7BnRlvdH1idgDmgRn638MrHYAp5vfzv96KnrKC_AEaCZhTT1R4ITD56YfZyATQQNm5BfXVKFH7HQb20aO2n_AFhqj6MEyDUFmuVRaX5oY6Ln8THJGUrX1pSEJS8kOIBaBFQ-1vf39V3B_eEgf7YTeetUQxdI6LhJzEYtUo6Q65vcqfNE9adk-EM8mCX8ODxu4xxjVUj9VeCJfVp30_HeEphHy_m00?></g></svg>